<?xml version="1.0" encoding="UTF-8"?>
<svg xmlns="http://www.w3.org/2000/svg" xmlns:xlink="http://www.w3.org/1999/xlink" width="708.6614" height="708.6614" viewBox="0 0 708.6614 708.6614">
<defs>
<clipPath id="clip-0">
<path clip-rule="nonzero" d="M 0 0 L 708.324219 0 L 708.324219 708.324219 L 0 708.324219 Z M 0 0 "/>
</clipPath>
</defs>
<g clip-path="url(#clip-0)">
</g>
<path fill-rule="evenodd" fill="rgb(18.968201%, 12.950134%, 13.3255%)" fill-opacity="1" d="M 355.632812 193.089844 C 315.480469 193.089844 282.917969 225.652344 282.917969 265.800781 C 282.917969 305.953125 315.480469 338.515625 355.632812 338.515625 C 395.78125 338.515625 428.34375 305.953125 428.34375 265.800781 C 428.34375 225.652344 395.78125 193.089844 355.632812 193.089844 "/>
<path fill-rule="evenodd" fill="rgb(58.824158%, 32.940674%, 15.686035%)" fill-opacity="1" d="M 348.085938 212.390625 C 326.066406 217.484375 303.964844 239.664062 303.964844 265.492188 C 303.964844 291.320312 326.066406 314.121094 348.085938 319.210938 C 348.085938 188.566406 348.085938 234.691406 348.085938 319.210938 C 339.101562 311.964844 329.386719 307.070312 330.855469 292.230469 C 331.5625 285.042969 329.449219 272.976562 329.449219 265.914062 C 329.449219 255.828125 331.054688 245.929688 330.695312 235.730469 C 330.296875 224.460938 337.25 220.089844 348.085938 212.390625 "/>
<path fill-rule="evenodd" fill="rgb(100%, 100%, 100%)" fill-opacity="1" d="M 355.207031 211.925781 C 325.457031 211.925781 301.332031 236.050781 301.332031 265.800781 C 301.332031 295.554688 325.457031 319.679688 355.207031 319.679688 C 378.601562 319.679688 398.515625 304.757812 405.960938 283.917969 L 405.941406 283.917969 C 404.511719 283.917969 403.148438 283.910156 401.851562 283.917969 C 400.800781 283.925781 400.105469 283.898438 398.632812 284.109375 C 391.875 285.082031 386.292969 288.164062 382.136719 292.410156 C 377.253906 297.40625 374.347656 304.007812 373.832031 310.683594 C 373.816406 310.902344 373.800781 311.117188 373.789062 311.332031 C 368.054688 313.675781 361.785156 314.96875 355.207031 314.96875 C 328.058594 314.96875 306.042969 292.953125 306.042969 265.800781 C 306.042969 238.652344 328.058594 216.636719 355.207031 216.636719 C 375.960938 216.636719 393.714844 229.5 400.929688 247.6875 L 405.960938 247.6875 C 398.515625 226.84375 378.601562 211.925781 355.207031 211.925781 Z M 398.714844 288.71875 C 397.964844 290.140625 397.148438 291.519531 396.265625 292.851562 C 391.871094 299.507812 385.90625 305.03125 378.890625 308.894531 C 378.867188 308.910156 378.839844 308.925781 378.8125 308.9375 C 378.964844 308.085938 379.152344 307.25 379.378906 306.433594 C 381.867188 297.355469 389.175781 290.148438 398.707031 288.71875 Z M 398.714844 288.71875 "/>
<path fill-rule="evenodd" fill="rgb(100%, 100%, 100%)" fill-opacity="1" d="M 348.085938 212.390625 C 326.066406 217.484375 327.695312 238.953125 327.695312 264.78125 C 327.695312 290.609375 326.066406 314.121094 348.085938 319.210938 L 348.085938 314.726562 C 333.804688 311.089844 331.828125 299.003906 331.703125 283.554688 C 331.660156 277.742188 331.703125 271.132812 331.703125 264.78125 C 331.703125 260.125 331.757812 254.414062 331.703125 250.132812 C 331.496094 233.0625 332.371094 220.878906 348.085938 216.875 Z M 348.085938 212.390625 "/>
<path fill-rule="evenodd" fill="rgb(100%, 100%, 100%)" fill-opacity="1" d="M 348.085938 212.390625 C 370.101562 217.484375 368.472656 238.953125 368.472656 264.78125 C 368.472656 290.609375 370.101562 314.121094 348.085938 319.210938 L 348.085938 314.726562 C 362.367188 311.089844 364.34375 299.003906 364.464844 283.554688 C 364.511719 277.742188 364.464844 271.132812 364.464844 264.78125 C 364.464844 260.125 364.414062 254.414062 364.464844 250.132812 C 364.671875 233.0625 363.796875 220.878906 348.085938 216.875 Z M 348.085938 212.390625 "/>
<path fill-rule="evenodd" fill="rgb(100%, 100%, 100%)" fill-opacity="1" d="M 345.808594 214.121094 L 350.21875 214.121094 L 350.21875 317.085938 L 345.808594 317.085938 Z M 345.808594 214.121094 "/>
<path fill-rule="evenodd" fill="rgb(100%, 100%, 100%)" fill-opacity="1" d="M 324.054688 223.15625 L 333.25 223.15625 L 333.25 224.003906 L 324.054688 224.003906 Z M 324.054688 223.15625 "/>
<path fill-rule="evenodd" fill="rgb(100%, 100%, 100%)" fill-opacity="1" d="M 319.855469 227.347656 L 333.25 227.347656 L 333.25 228.195312 L 319.855469 228.195312 Z M 319.855469 227.347656 "/>
<path fill-rule="evenodd" fill="rgb(100%, 100%, 100%)" fill-opacity="1" d="M 314.761719 231.539062 L 330.695312 231.539062 L 330.695312 232.386719 L 314.761719 232.386719 Z M 314.761719 231.539062 "/>
<path fill-rule="evenodd" fill="rgb(100%, 100%, 100%)" fill-opacity="1" d="M 312.660156 235.730469 L 330.695312 235.730469 L 330.695312 236.578125 L 312.660156 236.578125 Z M 312.660156 235.730469 "/>
<path fill-rule="evenodd" fill="rgb(100%, 100%, 100%)" fill-opacity="1" d="M 310.113281 239.921875 L 330.695312 239.921875 L 330.695312 240.769531 L 310.113281 240.769531 Z M 310.113281 239.921875 "/>
<path fill-rule="evenodd" fill="rgb(100%, 100%, 100%)" fill-opacity="1" d="M 307.566406 244.113281 L 330.695312 244.113281 L 330.695312 244.960938 L 307.566406 244.960938 Z M 307.566406 244.113281 "/>
<path fill-rule="evenodd" fill="rgb(100%, 100%, 100%)" fill-opacity="1" d="M 306.683594 248.304688 L 330.695312 248.304688 L 330.695312 249.152344 L 306.683594 249.152344 Z M 306.683594 248.304688 "/>
<path fill-rule="evenodd" fill="rgb(100%, 100%, 100%)" fill-opacity="1" d="M 305.679688 252.496094 L 329.449219 252.496094 L 329.449219 253.34375 L 305.679688 253.34375 Z M 305.679688 252.496094 "/>
<path fill-rule="evenodd" fill="rgb(100%, 100%, 100%)" fill-opacity="1" d="M 303.964844 256.6875 L 329.449219 256.6875 L 329.449219 257.53125 L 303.964844 257.53125 Z M 303.964844 256.6875 "/>
<path fill-rule="evenodd" fill="rgb(100%, 100%, 100%)" fill-opacity="1" d="M 302.683594 260.875 L 329.449219 260.875 L 329.449219 261.722656 L 302.683594 261.722656 Z M 302.683594 260.875 "/>
<path fill-rule="evenodd" fill="rgb(100%, 100%, 100%)" fill-opacity="1" d="M 303.964844 265.066406 L 329.449219 265.066406 L 329.449219 265.914062 L 303.964844 265.914062 Z M 303.964844 265.066406 "/>
<path fill-rule="evenodd" fill="rgb(100%, 100%, 100%)" fill-opacity="1" d="M 303.964844 269.257812 L 329.449219 269.257812 L 329.449219 270.105469 L 303.964844 270.105469 Z M 303.964844 269.257812 "/>
<path fill-rule="evenodd" fill="rgb(100%, 100%, 100%)" fill-opacity="1" d="M 303.964844 273.449219 L 329.449219 273.449219 L 329.449219 274.296875 L 303.964844 274.296875 Z M 303.964844 273.449219 "/>
<path fill-rule="evenodd" fill="rgb(100%, 100%, 100%)" fill-opacity="1" d="M 303.964844 277.640625 L 329.449219 277.640625 L 329.449219 278.488281 L 303.964844 278.488281 Z M 303.964844 277.640625 "/>
<path fill-rule="evenodd" fill="rgb(100%, 100%, 100%)" fill-opacity="1" d="M 305.917969 281.832031 L 329.449219 281.832031 L 329.449219 282.679688 L 305.917969 282.679688 Z M 305.917969 281.832031 "/>
<path fill-rule="evenodd" fill="rgb(100%, 100%, 100%)" fill-opacity="1" d="M 305.917969 286.023438 L 329.449219 286.023438 L 329.449219 286.871094 L 305.917969 286.871094 Z M 305.917969 286.023438 "/>
<path fill-rule="evenodd" fill="rgb(100%, 100%, 100%)" fill-opacity="1" d="M 309.214844 290.214844 L 329.449219 290.214844 L 329.449219 291.0625 L 309.214844 291.0625 Z M 309.214844 290.214844 "/>
<path fill-rule="evenodd" fill="rgb(100%, 100%, 100%)" fill-opacity="1" d="M 312.8125 294.40625 L 330.648438 294.40625 L 330.648438 295.253906 L 312.8125 295.253906 Z M 312.8125 294.40625 "/>
<path fill-rule="evenodd" fill="rgb(100%, 100%, 100%)" fill-opacity="1" d="M 315.214844 298.597656 L 330.648438 298.597656 L 330.648438 299.445312 L 315.214844 299.445312 Z M 315.214844 298.597656 "/>
<path fill-rule="evenodd" fill="rgb(100%, 100%, 100%)" fill-opacity="1" d="M 319.558594 302.789062 L 333.25 302.789062 L 333.25 303.636719 L 319.558594 303.636719 Z M 319.558594 302.789062 "/>
<path fill-rule="evenodd" fill="rgb(100%, 100%, 100%)" fill-opacity="1" d="M 324.203125 306.980469 L 333.25 306.980469 L 333.25 307.824219 L 324.203125 307.824219 Z M 324.203125 306.980469 "/>
<path fill-rule="nonzero" fill="rgb(18.968201%, 12.950134%, 13.3255%)" fill-opacity="1" d="M 289.058594 363.925781 C 287.589844 363.925781 286.855469 364.699219 286.855469 366.242188 L 286.855469 372.03125 C 286.855469 373.574219 287.589844 374.34375 289.058594 374.34375 L 296.226562 374.34375 L 296.226562 378.425781 L 289.058594 378.425781 C 287.589844 378.425781 286.855469 379.195312 286.855469 380.738281 L 286.855469 392.921875 L 282.996094 392.921875 L 282.996094 361.886719 C 282.996094 360.527344 283.640625 359.847656 284.925781 359.847656 L 297.878906 359.847656 L 297.878906 363.925781 Z M 289.058594 363.925781 "/>
<path fill-rule="nonzero" fill="rgb(18.968201%, 12.950134%, 13.3255%)" fill-opacity="1" d="M 314.714844 392.921875 L 314.714844 380.738281 C 314.714844 379.195312 313.980469 378.425781 312.511719 378.425781 L 309.753906 378.425781 C 308.285156 378.425781 307.550781 379.195312 307.550781 380.738281 L 307.550781 392.921875 L 303.691406 392.921875 L 303.691406 367.675781 C 303.691406 365.542969 304.40625 363.707031 305.839844 362.160156 C 307.273438 360.617188 309.039062 359.847656 311.132812 359.847656 C 313.226562 359.847656 314.992188 360.617188 316.425781 362.160156 C 317.859375 363.707031 318.574219 365.542969 318.574219 367.675781 L 318.574219 392.921875 Z M 314.714844 367.675781 C 314.714844 366.644531 314.375 365.761719 313.695312 365.027344 C 313.015625 364.292969 312.164062 363.925781 311.132812 363.925781 C 310.105469 363.925781 309.25 364.292969 308.570312 365.027344 C 307.890625 365.761719 307.550781 366.644531 307.550781 367.675781 L 307.550781 372.03125 C 307.550781 373.574219 308.285156 374.34375 309.753906 374.34375 L 312.511719 374.34375 C 313.980469 374.34375 314.714844 373.574219 314.714844 372.03125 Z M 314.714844 367.675781 "/>
<path fill-rule="nonzero" fill="rgb(18.968201%, 12.950134%, 13.3255%)" fill-opacity="1" d="M 325.929688 392.921875 L 334.363281 366.296875 C 334.289062 364.714844 333.554688 363.925781 332.160156 363.925781 L 325.597656 363.925781 L 325.597656 359.847656 L 340.152344 359.847656 L 331.773438 386.417969 C 331.773438 387.777344 332.398438 388.585938 333.648438 388.84375 L 340.484375 388.84375 L 340.484375 392.921875 Z M 325.929688 392.921875 "/>
<path fill-rule="nonzero" fill="rgb(18.968201%, 12.950134%, 13.3255%)" fill-opacity="1" d="M 349.4375 392.921875 C 348.148438 392.921875 347.507812 392.242188 347.507812 390.882812 L 347.507812 361.886719 C 347.507812 360.527344 348.148438 359.847656 349.4375 359.847656 L 362.390625 359.847656 L 362.390625 363.925781 L 353.570312 363.925781 C 352.101562 363.925781 351.367188 364.699219 351.367188 366.242188 L 351.367188 372.03125 C 351.367188 373.574219 352.101562 374.34375 353.570312 374.34375 L 359.636719 374.34375 L 359.636719 378.425781 L 353.570312 378.425781 C 352.101562 378.425781 351.367188 379.195312 351.367188 380.738281 L 351.367188 386.527344 C 351.367188 388.074219 352.101562 388.84375 353.570312 388.84375 L 362.390625 388.84375 L 362.390625 392.921875 Z M 349.4375 392.921875 "/>
<path fill-rule="nonzero" fill="rgb(18.968201%, 12.950134%, 13.3255%)" fill-opacity="1" d="M 380.21875 392.921875 L 375.644531 378.535156 C 375.3125 377.433594 374.871094 376.882812 374.320312 376.882812 C 373.621094 376.882812 373.273438 377.503906 373.273438 378.753906 L 373.273438 392.921875 L 369.414062 392.921875 L 369.414062 359.847656 L 373.496094 359.847656 L 378.179688 374.511719 C 378.472656 375.429688 378.878906 375.890625 379.394531 375.890625 C 380.089844 375.890625 380.441406 375.300781 380.441406 374.125 L 380.441406 359.847656 L 384.300781 359.847656 L 384.300781 392.921875 Z M 380.21875 392.921875 "/>
<path fill-rule="nonzero" fill="rgb(18.968201%, 12.950134%, 13.3255%)" fill-opacity="1" d="M 398.765625 392.921875 L 393.253906 392.921875 C 391.964844 392.921875 391.324219 392.242188 391.324219 390.882812 L 391.324219 361.886719 C 391.324219 360.527344 391.964844 359.847656 393.253906 359.847656 L 398.765625 359.847656 C 400.859375 359.847656 402.625 360.617188 404.058594 362.160156 C 405.492188 363.707031 406.207031 365.542969 406.207031 367.675781 L 406.207031 385.09375 C 406.207031 387.226562 405.492188 389.066406 404.058594 390.609375 C 402.625 392.152344 400.859375 392.921875 398.765625 392.921875 Z M 402.347656 367.675781 C 402.347656 366.644531 402.007812 365.761719 401.328125 365.027344 C 400.648438 364.292969 399.792969 363.925781 398.765625 363.925781 C 397.847656 363.925781 397.203125 363.960938 396.835938 364.035156 C 395.734375 364.292969 395.179688 365.027344 395.179688 366.242188 L 395.179688 386.527344 C 395.179688 387.742188 395.734375 388.476562 396.835938 388.734375 C 397.203125 388.808594 397.847656 388.84375 398.765625 388.84375 C 399.792969 388.84375 400.648438 388.476562 401.328125 387.742188 C 402.007812 387.007812 402.347656 386.125 402.347656 385.09375 Z M 402.347656 367.675781 "/>
<path fill-rule="nonzero" fill="rgb(18.968201%, 12.950134%, 13.3255%)" fill-opacity="1" d="M 424.257812 392.921875 L 424.257812 380.738281 C 424.257812 379.195312 423.519531 378.425781 422.050781 378.425781 L 419.292969 378.425781 C 417.824219 378.425781 417.089844 379.195312 417.089844 380.738281 L 417.089844 392.921875 L 413.230469 392.921875 L 413.230469 367.675781 C 413.230469 365.542969 413.945312 363.707031 415.378906 362.160156 C 416.8125 360.617188 418.578125 359.847656 420.671875 359.847656 C 422.769531 359.847656 424.53125 360.617188 425.964844 362.160156 C 427.398438 363.707031 428.113281 365.542969 428.113281 367.675781 L 428.113281 392.921875 Z M 424.257812 367.675781 C 424.257812 366.644531 423.917969 365.761719 423.234375 365.027344 C 422.554688 364.292969 421.703125 363.925781 420.671875 363.925781 C 419.644531 363.925781 418.789062 364.292969 418.109375 365.027344 C 417.429688 365.761719 417.089844 366.644531 417.089844 367.675781 L 417.089844 372.03125 C 417.089844 373.574219 417.824219 374.34375 419.292969 374.34375 L 422.050781 374.34375 C 423.519531 374.34375 424.257812 373.574219 424.257812 372.03125 Z M 424.257812 367.675781 "/>
<path fill-rule="nonzero" fill="rgb(18.968201%, 12.950134%, 13.3255%)" fill-opacity="1" d="M 231.632812 515.234375 C 230.699219 515.234375 229.898438 514.90625 229.226562 514.253906 C 228.558594 513.601562 228.179688 512.820312 228.089844 511.902344 L 229.96875 511.902344 C 230.039062 512.308594 230.234375 512.636719 230.550781 512.894531 C 230.867188 513.148438 231.230469 513.277344 231.632812 513.277344 C 232.515625 513.277344 233.0625 512.855469 233.273438 512.007812 C 233.324219 511.742188 233.351562 511.101562 233.351562 510.078125 C 233.351562 509.585938 233.191406 509.160156 232.863281 508.808594 C 232.539062 508.457031 232.128906 508.28125 231.632812 508.28125 C 230.628906 508.28125 229.785156 507.910156 229.097656 507.171875 C 228.410156 506.429688 228.066406 505.546875 228.066406 504.527344 L 228.066406 503.125 C 228.066406 502.101562 228.410156 501.222656 229.097656 500.480469 C 229.785156 499.742188 230.628906 499.371094 231.632812 499.371094 C 232.566406 499.371094 233.371094 499.695312 234.039062 500.347656 C 234.710938 501 235.089844 501.785156 235.175781 502.703125 L 233.300781 502.703125 C 233.230469 502.296875 233.035156 501.964844 232.71875 501.710938 C 232.402344 501.453125 232.039062 501.328125 231.632812 501.328125 C 230.769531 501.328125 230.222656 501.75 229.996094 502.597656 C 229.941406 502.84375 229.914062 503.484375 229.914062 504.527344 C 229.914062 505.019531 230.078125 505.441406 230.40625 505.796875 C 230.730469 506.148438 231.140625 506.324219 231.632812 506.324219 C 232.640625 506.324219 233.484375 506.695312 234.171875 507.433594 C 234.859375 508.175781 235.203125 509.054688 235.203125 510.078125 L 235.203125 511.480469 C 235.203125 512.5 234.859375 513.382812 234.171875 514.125 C 233.484375 514.863281 232.640625 515.234375 231.632812 515.234375 "/>
<path fill-rule="nonzero" fill="rgb(18.968201%, 12.950134%, 13.3255%)" fill-opacity="1" d="M 248.660156 508.28125 L 248 508.28125 C 247.292969 508.28125 246.941406 508.648438 246.941406 509.390625 L 246.941406 515.234375 L 245.089844 515.234375 L 245.089844 500.347656 C 245.089844 499.695312 245.398438 499.371094 246.015625 499.371094 L 248.660156 499.371094 C 249.664062 499.371094 250.511719 499.742188 251.199219 500.480469 C 251.886719 501.222656 252.230469 502.101562 252.230469 503.125 L 252.230469 504.527344 C 252.230469 505.546875 251.886719 506.429688 251.199219 507.171875 C 250.511719 507.910156 249.664062 508.28125 248.660156 508.28125 Z M 250.378906 503.125 C 250.378906 502.632812 250.214844 502.207031 249.890625 501.855469 C 249.5625 501.503906 249.152344 501.328125 248.660156 501.328125 L 248 501.328125 C 247.292969 501.328125 246.941406 501.695312 246.941406 502.4375 L 246.941406 505.214844 C 246.941406 505.953125 247.292969 506.324219 248 506.324219 L 248.660156 506.324219 C 249.152344 506.324219 249.5625 506.148438 249.890625 505.796875 C 250.214844 505.441406 250.378906 505.019531 250.378906 504.527344 Z M 250.378906 503.125 "/>
<path fill-rule="nonzero" fill="rgb(18.968201%, 12.950134%, 13.3255%)" fill-opacity="1" d="M 263.042969 515.234375 C 262.425781 515.234375 262.117188 514.90625 262.117188 514.253906 L 262.117188 500.347656 C 262.117188 499.695312 262.425781 499.371094 263.042969 499.371094 L 269.257812 499.371094 L 269.257812 501.328125 L 265.027344 501.328125 C 264.320312 501.328125 263.96875 501.695312 263.96875 502.4375 L 263.96875 505.214844 C 263.96875 505.953125 264.320312 506.324219 265.027344 506.324219 L 267.933594 506.324219 L 267.933594 508.28125 L 265.027344 508.28125 C 264.320312 508.28125 263.96875 508.648438 263.96875 509.390625 L 263.96875 512.167969 C 263.96875 512.90625 264.320312 513.277344 265.027344 513.277344 L 269.257812 513.277344 L 269.257812 515.234375 Z M 263.042969 515.234375 "/>
<path fill-rule="nonzero" fill="rgb(18.968201%, 12.950134%, 13.3255%)" fill-opacity="1" d="M 282.714844 515.234375 C 281.707031 515.234375 280.863281 514.863281 280.175781 514.125 C 279.488281 513.382812 279.144531 512.5 279.144531 511.480469 L 279.144531 503.125 C 279.144531 502.101562 279.488281 501.222656 280.175781 500.480469 C 280.863281 499.742188 281.707031 499.371094 282.714844 499.371094 C 283.648438 499.371094 284.449219 499.695312 285.117188 500.347656 C 285.789062 501 286.167969 501.785156 286.257812 502.703125 L 284.378906 502.703125 C 284.308594 502.296875 284.113281 501.964844 283.796875 501.710938 C 283.480469 501.453125 283.117188 501.328125 282.714844 501.328125 C 282.21875 501.328125 281.808594 501.503906 281.484375 501.855469 C 281.15625 502.207031 280.996094 502.632812 280.996094 503.125 L 280.996094 511.480469 C 280.996094 511.972656 281.15625 512.394531 281.484375 512.75 C 281.808594 513.101562 282.21875 513.277344 282.714844 513.277344 C 283.117188 513.277344 283.480469 513.148438 283.796875 512.894531 C 284.113281 512.636719 284.308594 512.308594 284.378906 511.902344 L 286.257812 511.902344 C 286.167969 512.820312 285.789062 513.601562 285.117188 514.253906 C 284.449219 514.90625 283.648438 515.234375 282.714844 515.234375 "/>
<path fill-rule="nonzero" fill="rgb(18.968201%, 12.950134%, 13.3255%)" fill-opacity="1" d="M 296.171875 515.234375 L 296.171875 499.371094 L 298.019531 499.371094 L 298.019531 515.234375 Z M 296.171875 515.234375 "/>
<path fill-rule="nonzero" fill="rgb(18.968201%, 12.950134%, 13.3255%)" fill-opacity="1" d="M 313.195312 515.234375 L 313.195312 509.390625 C 313.195312 508.648438 312.84375 508.28125 312.140625 508.28125 L 310.816406 508.28125 C 310.113281 508.28125 309.761719 508.648438 309.761719 509.390625 L 309.761719 515.234375 L 307.910156 515.234375 L 307.910156 503.125 C 307.910156 502.101562 308.253906 501.222656 308.941406 500.480469 C 309.628906 499.742188 310.472656 499.371094 311.476562 499.371094 C 312.484375 499.371094 313.328125 499.742188 314.015625 500.480469 C 314.703125 501.222656 315.046875 502.101562 315.046875 503.125 L 315.046875 515.234375 Z M 313.195312 503.125 C 313.195312 502.632812 313.035156 502.207031 312.707031 501.855469 C 312.382812 501.503906 311.972656 501.328125 311.476562 501.328125 C 310.984375 501.328125 310.574219 501.503906 310.25 501.855469 C 309.921875 502.207031 309.761719 502.632812 309.761719 503.125 L 309.761719 505.214844 C 309.761719 505.953125 310.113281 506.324219 310.816406 506.324219 L 312.140625 506.324219 C 312.84375 506.324219 313.195312 505.953125 313.195312 505.214844 Z M 313.195312 503.125 "/>
<path fill-rule="nonzero" fill="rgb(18.968201%, 12.950134%, 13.3255%)" fill-opacity="1" d="M 324.933594 515.234375 L 324.933594 499.371094 L 326.785156 499.371094 L 326.785156 512.167969 C 326.785156 512.90625 327.140625 513.277344 327.84375 513.277344 L 332.074219 513.277344 L 332.074219 515.234375 Z M 324.933594 515.234375 "/>
<path fill-rule="nonzero" fill="rgb(18.968201%, 12.950134%, 13.3255%)" fill-opacity="1" d="M 347.515625 501.328125 C 346.808594 501.328125 346.457031 501.695312 346.457031 502.4375 L 346.457031 515.234375 L 344.605469 515.234375 L 344.605469 502.4375 C 344.605469 501.695312 344.253906 501.328125 343.546875 501.328125 L 341.960938 501.328125 L 341.960938 499.371094 L 349.101562 499.371094 L 349.101562 501.328125 Z M 347.515625 501.328125 "/>
<path fill-rule="nonzero" fill="rgb(18.968201%, 12.950134%, 13.3255%)" fill-opacity="1" d="M 363.484375 507.222656 L 363.484375 515.234375 L 361.632812 515.234375 L 361.632812 507.222656 L 359.148438 499.371094 L 360.945312 499.371094 L 362.082031 502.914062 C 362.203125 503.175781 362.371094 503.308594 362.582031 503.308594 C 362.8125 503.308594 362.972656 503.160156 363.058594 502.859375 L 364.171875 499.371094 L 365.96875 499.371094 Z M 363.484375 507.222656 "/>
<path fill-rule="nonzero" fill="rgb(18.968201%, 12.950134%, 13.3255%)" fill-opacity="1" d="M 394.070312 515.234375 C 393.066406 515.234375 392.222656 514.863281 391.535156 514.125 C 390.847656 513.382812 390.503906 512.5 390.503906 511.480469 L 390.503906 503.125 C 390.503906 502.101562 390.847656 501.222656 391.535156 500.480469 C 392.222656 499.742188 393.066406 499.371094 394.070312 499.371094 C 395.007812 499.371094 395.808594 499.695312 396.476562 500.347656 C 397.148438 501 397.527344 501.785156 397.613281 502.703125 L 395.738281 502.703125 C 395.667969 502.296875 395.472656 501.964844 395.15625 501.710938 C 394.839844 501.453125 394.476562 501.328125 394.070312 501.328125 C 393.578125 501.328125 393.167969 501.503906 392.84375 501.855469 C 392.515625 502.207031 392.355469 502.632812 392.355469 503.125 L 392.355469 511.480469 C 392.355469 511.972656 392.515625 512.394531 392.84375 512.75 C 393.167969 513.101562 393.578125 513.277344 394.070312 513.277344 C 394.476562 513.277344 394.839844 513.148438 395.15625 512.894531 C 395.472656 512.636719 395.667969 512.308594 395.738281 511.902344 L 397.613281 511.902344 C 397.527344 512.820312 397.148438 513.601562 396.476562 514.253906 C 395.808594 514.90625 395.007812 515.234375 394.070312 515.234375 "/>
<path fill-rule="nonzero" fill="rgb(18.968201%, 12.950134%, 13.3255%)" fill-opacity="1" d="M 411.097656 515.234375 C 410.09375 515.234375 409.246094 514.863281 408.558594 514.125 C 407.871094 513.382812 407.53125 512.5 407.53125 511.480469 L 407.53125 503.125 C 407.53125 502.101562 407.871094 501.222656 408.558594 500.480469 C 409.246094 499.742188 410.09375 499.371094 411.097656 499.371094 C 412.101562 499.371094 412.949219 499.742188 413.636719 500.480469 C 414.324219 501.222656 414.667969 502.101562 414.667969 503.125 L 414.667969 511.480469 C 414.667969 512.5 414.324219 513.382812 413.636719 514.125 C 412.949219 514.863281 412.101562 515.234375 411.097656 515.234375 Z M 412.816406 503.125 C 412.816406 502.632812 412.652344 502.207031 412.328125 501.855469 C 412 501.503906 411.59375 501.328125 411.097656 501.328125 C 410.605469 501.328125 410.195312 501.503906 409.867188 501.855469 C 409.542969 502.207031 409.378906 502.632812 409.378906 503.125 L 409.378906 511.480469 C 409.378906 511.972656 409.542969 512.394531 409.867188 512.75 C 410.195312 513.101562 410.605469 513.277344 411.097656 513.277344 C 411.59375 513.277344 412 513.101562 412.328125 512.75 C 412.652344 512.394531 412.816406 511.972656 412.816406 511.480469 Z M 412.816406 503.125 "/>
<path fill-rule="nonzero" fill="rgb(18.968201%, 12.950134%, 13.3255%)" fill-opacity="1" d="M 427.464844 501.328125 C 426.757812 501.328125 426.40625 501.695312 426.40625 502.4375 L 426.40625 505.214844 C 426.40625 505.953125 426.757812 506.324219 427.464844 506.324219 L 430.902344 506.324219 L 430.902344 508.28125 L 427.464844 508.28125 C 426.757812 508.28125 426.40625 508.648438 426.40625 509.390625 L 426.40625 515.234375 L 424.554688 515.234375 L 424.554688 500.347656 C 424.554688 499.695312 424.863281 499.371094 425.480469 499.371094 L 431.695312 499.371094 L 431.695312 501.328125 Z M 427.464844 501.328125 "/>
<path fill-rule="nonzero" fill="rgb(18.968201%, 12.950134%, 13.3255%)" fill-opacity="1" d="M 443.910156 501.328125 C 443.203125 501.328125 442.851562 501.695312 442.851562 502.4375 L 442.851562 505.214844 C 442.851562 505.953125 443.203125 506.324219 443.910156 506.324219 L 447.34375 506.324219 L 447.34375 508.28125 L 443.910156 508.28125 C 443.203125 508.28125 442.851562 508.648438 442.851562 509.390625 L 442.851562 515.234375 L 441 515.234375 L 441 500.347656 C 441 499.695312 441.308594 499.371094 441.925781 499.371094 L 448.140625 499.371094 L 448.140625 501.328125 Z M 443.910156 501.328125 "/>
<path fill-rule="nonzero" fill="rgb(18.968201%, 12.950134%, 13.3255%)" fill-opacity="1" d="M 458.371094 515.234375 C 457.753906 515.234375 457.445312 514.90625 457.445312 514.253906 L 457.445312 500.347656 C 457.445312 499.695312 457.753906 499.371094 458.371094 499.371094 L 464.582031 499.371094 L 464.582031 501.328125 L 460.351562 501.328125 C 459.648438 501.328125 459.296875 501.695312 459.296875 502.4375 L 459.296875 505.214844 C 459.296875 505.953125 459.648438 506.324219 460.351562 506.324219 L 463.261719 506.324219 L 463.261719 508.28125 L 460.351562 508.28125 C 459.648438 508.28125 459.296875 508.648438 459.296875 509.390625 L 459.296875 512.167969 C 459.296875 512.90625 459.648438 513.277344 460.351562 513.277344 L 464.582031 513.277344 L 464.582031 515.234375 Z M 458.371094 515.234375 "/>
<path fill-rule="nonzero" fill="rgb(18.968201%, 12.950134%, 13.3255%)" fill-opacity="1" d="M 475.398438 515.234375 C 474.78125 515.234375 474.472656 514.90625 474.472656 514.253906 L 474.472656 500.347656 C 474.472656 499.695312 474.78125 499.371094 475.398438 499.371094 L 481.609375 499.371094 L 481.609375 501.328125 L 477.378906 501.328125 C 476.675781 501.328125 476.324219 501.695312 476.324219 502.4375 L 476.324219 505.214844 C 476.324219 505.953125 476.675781 506.324219 477.378906 506.324219 L 480.289062 506.324219 L 480.289062 508.28125 L 477.378906 508.28125 C 476.675781 508.28125 476.324219 508.648438 476.324219 509.390625 L 476.324219 512.167969 C 476.324219 512.90625 476.675781 513.277344 477.378906 513.277344 L 481.609375 513.277344 L 481.609375 515.234375 Z M 475.398438 515.234375 "/>
<path fill-rule="nonzero" fill="rgb(18.968201%, 12.950134%, 13.3255%)" fill-opacity="1" d="M 170.351562 453.195312 L 181.84375 462.304688 C 182.082031 462.503906 182.21875 462.761719 182.261719 463.078125 C 182.300781 463.394531 182.21875 463.675781 182.023438 463.914062 C 179.085938 467.523438 175.503906 470.363281 171.277344 472.425781 C 167.046875 474.492188 162.511719 475.523438 157.671875 475.523438 C 153.425781 475.523438 149.375 474.707031 145.527344 473.082031 C 141.675781 471.453125 138.351562 469.25 135.554688 466.472656 C 132.753906 463.695312 130.53125 460.378906 128.882812 456.53125 C 127.238281 452.679688 126.414062 448.652344 126.414062 444.445312 C 126.414062 440.234375 127.238281 436.21875 128.882812 432.386719 C 130.53125 428.554688 132.753906 425.253906 135.554688 422.472656 C 138.351562 419.695312 141.675781 417.484375 145.527344 415.835938 C 149.375 414.1875 153.425781 413.363281 157.671875 413.363281 C 162.472656 413.363281 167 414.398438 171.246094 416.460938 C 175.492188 418.523438 179.066406 421.34375 181.960938 424.914062 C 182.160156 425.191406 182.242188 425.492188 182.199219 425.808594 C 182.160156 426.125 182.023438 426.382812 181.785156 426.582031 L 170.292969 435.632812 C 170.054688 435.832031 169.789062 435.917969 169.488281 435.898438 C 169.191406 435.878906 168.945312 435.75 168.746094 435.511719 C 167.355469 433.964844 165.679688 432.695312 163.714844 431.703125 C 161.75 430.710938 159.734375 430.214844 157.671875 430.214844 C 153.703125 430.214844 150.328125 431.601562 147.550781 434.382812 C 144.769531 437.160156 143.382812 440.515625 143.382812 444.445312 C 143.382812 448.371094 144.769531 451.726562 147.550781 454.503906 C 150.328125 457.285156 153.703125 458.671875 157.671875 458.671875 C 159.734375 458.671875 161.757812 458.175781 163.746094 457.183594 C 165.730469 456.191406 167.414062 454.902344 168.804688 453.316406 C 169.003906 453.078125 169.25 452.949219 169.550781 452.925781 C 169.847656 452.90625 170.113281 452.996094 170.351562 453.195312 "/>
<path fill-rule="nonzero" fill="rgb(18.968201%, 12.950134%, 13.3255%)" fill-opacity="1" d="M 224.085938 415.449219 C 224.085938 415.089844 224.195312 414.804688 224.414062 414.585938 C 224.632812 414.367188 224.898438 414.257812 225.21875 414.257812 L 239.625 414.257812 C 239.941406 414.257812 240.210938 414.367188 240.429688 414.585938 C 240.648438 414.804688 240.757812 415.089844 240.757812 415.449219 L 240.757812 472.605469 C 240.757812 472.960938 240.648438 473.25 240.429688 473.46875 C 240.210938 473.6875 239.941406 473.796875 239.625 473.796875 L 225.21875 473.796875 C 224.898438 473.796875 224.632812 473.6875 224.414062 473.46875 C 224.195312 473.25 224.085938 472.960938 224.085938 472.605469 L 224.085938 451.113281 L 203.308594 451.113281 L 203.308594 472.605469 C 203.308594 472.960938 203.1875 473.25 202.949219 473.46875 C 202.710938 473.6875 202.433594 473.796875 202.117188 473.796875 L 187.769531 473.796875 C 187.410156 473.796875 187.121094 473.6875 186.90625 473.46875 C 186.6875 473.25 186.578125 472.960938 186.578125 472.605469 L 186.578125 415.449219 C 186.578125 415.089844 186.6875 414.804688 186.90625 414.585938 C 187.121094 414.367188 187.410156 414.257812 187.769531 414.257812 L 202.117188 414.257812 C 202.433594 414.257812 202.710938 414.367188 202.949219 414.585938 C 203.1875 414.804688 203.308594 415.089844 203.308594 415.449219 L 203.308594 436.941406 L 224.085938 436.941406 Z M 224.085938 415.449219 "/>
<path fill-rule="nonzero" fill="rgb(18.968201%, 12.950134%, 13.3255%)" fill-opacity="1" d="M 281.988281 414.257812 C 282.503906 414.257812 282.859375 414.515625 283.058594 415.03125 L 304.136719 471.890625 C 304.175781 472.007812 304.195312 472.128906 304.195312 472.246094 L 304.195312 472.664062 C 304.195312 472.980469 304.085938 473.25 303.867188 473.46875 C 303.648438 473.6875 303.378906 473.796875 303.0625 473.796875 L 288.417969 473.796875 C 287.859375 473.796875 287.503906 473.539062 287.34375 473.023438 L 284.191406 464.507812 L 265.136719 464.507812 L 261.921875 473.023438 C 261.761719 473.539062 261.40625 473.796875 260.851562 473.796875 L 246.265625 473.796875 C 245.90625 473.796875 245.617188 473.6875 245.402344 473.46875 C 245.183594 473.25 245.074219 472.980469 245.074219 472.664062 L 245.074219 472.246094 C 245.074219 472.128906 245.09375 471.988281 245.132812 471.832031 L 266.210938 415.03125 C 266.40625 414.515625 266.765625 414.257812 267.28125 414.257812 Z M 270.554688 449.859375 L 278.773438 449.859375 L 274.605469 438.847656 Z M 270.554688 449.859375 "/>
<path fill-rule="nonzero" fill="rgb(18.968201%, 12.950134%, 13.3255%)" fill-opacity="1" d="M 308.511719 472.605469 L 308.511719 415.449219 C 308.511719 415.089844 308.621094 414.804688 308.839844 414.585938 C 309.054688 414.367188 309.34375 414.257812 309.703125 414.257812 L 337.921875 414.257812 C 340.421875 414.257812 342.726562 414.695312 344.828125 415.566406 C 346.933594 416.441406 348.796875 417.742188 350.425781 419.46875 C 352.054688 421.195312 353.324219 423.425781 354.234375 426.164062 C 355.148438 428.902344 355.605469 432.039062 355.605469 435.570312 C 355.605469 439.105469 355.148438 442.25 354.234375 445.007812 C 353.324219 447.769531 352.054688 450 350.425781 451.707031 C 348.796875 453.414062 346.933594 454.703125 344.828125 455.578125 C 342.726562 456.449219 340.421875 456.886719 337.921875 456.886719 L 325.242188 456.886719 L 325.242188 472.605469 C 325.242188 472.960938 325.121094 473.25 324.882812 473.46875 C 324.644531 473.6875 324.367188 473.796875 324.050781 473.796875 L 309.703125 473.796875 C 309.34375 473.796875 309.054688 473.6875 308.839844 473.46875 C 308.621094 473.25 308.511719 472.960938 308.511719 472.605469 Z M 332.625 443.015625 C 334.371094 443.015625 335.828125 442.339844 337 440.992188 C 338.171875 439.640625 338.757812 437.835938 338.757812 435.570312 C 338.757812 433.308594 338.171875 431.515625 337 430.183594 C 335.828125 428.855469 334.371094 428.1875 332.625 428.1875 L 325.777344 428.1875 C 325.417969 428.1875 325.242188 428.367188 325.242188 428.726562 L 325.242188 442.417969 C 325.242188 442.816406 325.417969 443.015625 325.777344 443.015625 Z M 332.625 443.015625 "/>
<path fill-rule="nonzero" fill="rgb(18.968201%, 12.950134%, 13.3255%)" fill-opacity="1" d="M 387.488281 414.257812 C 388.003906 414.257812 388.363281 414.515625 388.558594 415.03125 L 409.636719 471.890625 C 409.675781 472.007812 409.695312 472.128906 409.695312 472.246094 L 409.695312 472.664062 C 409.695312 472.980469 409.585938 473.25 409.367188 473.46875 C 409.148438 473.6875 408.882812 473.796875 408.5625 473.796875 L 393.917969 473.796875 C 393.363281 473.796875 393.003906 473.539062 392.847656 473.023438 L 389.691406 464.507812 L 370.640625 464.507812 L 367.425781 473.023438 C 367.265625 473.539062 366.90625 473.796875 366.351562 473.796875 L 351.765625 473.796875 C 351.40625 473.796875 351.121094 473.6875 350.902344 473.46875 C 350.683594 473.25 350.574219 472.980469 350.574219 472.664062 L 350.574219 472.246094 C 350.574219 472.128906 350.59375 471.988281 350.632812 471.832031 L 371.710938 415.03125 C 371.910156 414.515625 372.265625 414.257812 372.78125 414.257812 Z M 376.058594 449.859375 L 384.273438 449.859375 L 380.105469 438.847656 Z M 376.058594 449.859375 "/>
<path fill-rule="nonzero" fill="rgb(18.968201%, 12.950134%, 13.3255%)" fill-opacity="1" d="M 437.769531 414.257812 C 441.460938 414.257812 444.84375 414.84375 447.917969 416.015625 C 450.996094 417.183594 453.734375 418.929688 456.136719 421.253906 C 458.535156 423.574219 460.414062 426.679688 461.761719 430.570312 C 463.109375 434.460938 463.785156 438.945312 463.785156 444.027344 C 463.785156 449.105469 463.109375 453.59375 461.761719 457.480469 C 460.414062 461.371094 458.535156 464.476562 456.136719 466.800781 C 453.734375 469.121094 450.996094 470.867188 447.917969 472.039062 C 444.84375 473.210938 441.460938 473.796875 437.769531 473.796875 L 415.203125 473.796875 C 414.847656 473.796875 414.558594 473.6875 414.339844 473.46875 C 414.121094 473.25 414.011719 472.960938 414.011719 472.605469 L 414.011719 415.449219 C 414.011719 415.089844 414.121094 414.804688 414.339844 414.585938 C 414.558594 414.367188 414.847656 414.257812 415.203125 414.257812 Z M 434.015625 459.683594 C 437.828125 459.683594 440.921875 458.375 443.304688 455.753906 C 445.6875 453.136719 446.878906 449.207031 446.878906 443.96875 C 446.878906 438.726562 445.6875 434.796875 443.304688 432.179688 C 440.921875 429.558594 437.828125 428.25 434.015625 428.25 L 431.277344 428.25 C 430.921875 428.25 430.742188 428.449219 430.742188 428.84375 L 430.742188 459.148438 C 430.742188 459.507812 430.921875 459.683594 431.277344 459.683594 Z M 434.015625 459.683594 "/>
<path fill-rule="nonzero" fill="rgb(18.968201%, 12.950134%, 13.3255%)" fill-opacity="1" d="M 475.070312 405.386719 C 474.511719 404.949219 474.453125 404.433594 474.890625 403.839844 C 475.367188 403.125 475.902344 402.4375 476.496094 401.785156 C 477.09375 401.128906 477.894531 400.355469 478.910156 399.460938 C 479.921875 398.570312 481.070312 397.84375 482.363281 397.289062 C 483.652344 396.734375 484.972656 396.457031 486.320312 396.457031 C 487.671875 396.457031 489.03125 396.785156 490.398438 397.4375 C 491.769531 398.09375 492.980469 398.75 494.03125 399.402344 C 495.082031 400.058594 495.90625 400.386719 496.503906 400.386719 C 498.089844 400.386719 499.757812 399.234375 501.503906 396.933594 C 501.703125 396.65625 501.960938 396.496094 502.277344 396.457031 C 502.59375 396.417969 502.894531 396.515625 503.171875 396.753906 L 508.945312 401.515625 C 509.421875 401.953125 509.5 402.449219 509.183594 403.003906 C 508.785156 403.71875 508.300781 404.433594 507.726562 405.148438 C 507.148438 405.863281 506.386719 406.6875 505.433594 407.617188 C 504.480469 408.550781 503.339844 409.296875 502.007812 409.851562 C 500.679688 410.40625 499.261719 410.683594 497.753906 410.683594 C 496.640625 410.683594 495.539062 410.476562 494.449219 410.058594 C 493.355469 409.644531 492.453125 409.175781 491.738281 408.660156 C 491.023438 408.144531 490.289062 407.679688 489.535156 407.261719 C 488.78125 406.84375 488.128906 406.636719 487.570312 406.636719 C 486.023438 406.636719 484.335938 407.828125 482.511719 410.210938 C 482.3125 410.488281 482.054688 410.644531 481.738281 410.683594 C 481.417969 410.726562 481.121094 410.625 480.84375 410.386719 Z M 499.0625 414.257812 C 499.578125 414.257812 499.933594 414.515625 500.132812 415.03125 L 521.210938 471.890625 C 521.25 472.007812 521.269531 472.128906 521.269531 472.246094 L 521.269531 472.664062 C 521.269531 472.980469 521.160156 473.25 520.941406 473.46875 C 520.722656 473.6875 520.457031 473.796875 520.136719 473.796875 L 505.492188 473.796875 C 504.9375 473.796875 504.578125 473.539062 504.421875 473.023438 L 501.265625 464.507812 L 482.214844 464.507812 L 478.996094 473.023438 C 478.839844 473.539062 478.480469 473.796875 477.925781 473.796875 L 463.339844 473.796875 C 462.980469 473.796875 462.695312 473.6875 462.476562 473.46875 C 462.257812 473.25 462.148438 472.980469 462.148438 472.664062 L 462.148438 472.246094 C 462.148438 472.128906 462.167969 471.988281 462.207031 471.832031 L 483.285156 415.03125 C 483.484375 414.515625 483.839844 414.257812 484.355469 414.257812 Z M 487.632812 449.859375 L 495.847656 449.859375 L 491.679688 438.847656 Z M 487.632812 449.859375 "/>
<path fill-rule="nonzero" fill="rgb(18.968201%, 12.950134%, 13.3255%)" fill-opacity="1" d="M 538.148438 415.835938 C 542.039062 414.1875 546.117188 413.363281 550.382812 413.363281 C 554.652344 413.363281 558.730469 414.1875 562.621094 415.835938 C 566.507812 417.484375 569.863281 419.695312 572.679688 422.472656 C 575.5 425.253906 577.742188 428.554688 579.410156 432.386719 C 581.074219 436.21875 581.910156 440.234375 581.910156 444.445312 C 581.910156 448.652344 581.074219 452.679688 579.410156 456.53125 C 577.742188 460.378906 575.5 463.695312 572.679688 466.472656 C 569.863281 469.25 566.507812 471.453125 562.621094 473.082031 C 558.730469 474.707031 554.652344 475.523438 550.382812 475.523438 C 546.117188 475.523438 542.039062 474.707031 538.148438 473.082031 C 534.257812 471.453125 530.90625 469.25 528.085938 466.472656 C 525.269531 463.695312 523.027344 460.378906 521.359375 456.53125 C 519.691406 452.679688 518.859375 448.652344 518.859375 444.445312 C 518.859375 440.234375 519.691406 436.21875 521.359375 432.386719 C 523.027344 428.554688 525.269531 425.253906 528.085938 422.472656 C 530.90625 419.695312 534.257812 417.484375 538.148438 415.835938 Z M 540.171875 454.503906 C 542.992188 457.285156 546.394531 458.671875 550.382812 458.671875 C 554.375 458.671875 557.777344 457.285156 560.59375 454.503906 C 563.414062 451.726562 564.820312 448.371094 564.820312 444.445312 C 564.820312 440.515625 563.414062 437.160156 560.59375 434.382812 C 557.777344 431.601562 554.375 430.214844 550.382812 430.214844 C 546.394531 430.214844 542.992188 431.601562 540.171875 434.382812 C 537.355469 437.160156 535.945312 440.515625 535.945312 444.445312 C 535.945312 448.371094 537.355469 451.726562 540.171875 454.503906 "/>
<path fill-rule="evenodd" fill="rgb(85.882568%, 65.882874%, 52.549744%)" fill-opacity="1" d="M 444.402344 375.070312 L 482.933594 375.070312 L 482.933594 377.703125 L 444.402344 377.703125 Z M 444.402344 375.070312 "/>
<path fill-rule="evenodd" fill="rgb(85.882568%, 65.882874%, 52.549744%)" fill-opacity="1" d="M 226.742188 375.070312 L 265.273438 375.070312 L 265.273438 377.703125 L 226.742188 377.703125 Z M 226.742188 375.070312 "/>
</svg>
