<?xml version="1.0" encoding="UTF-8"?>
<svg xmlns="http://www.w3.org/2000/svg" xmlns:xlink="http://www.w3.org/1999/xlink" width="708.6614" height="708.6614" viewBox="0 0 708.6614 708.6614">
<defs>
<clipPath id="clip-0">
<path clip-rule="nonzero" d="M 0 0 L 708.324219 0 L 708.324219 708.324219 L 0 708.324219 Z M 0 0 "/>
</clipPath>
</defs>
<g clip-path="url(#clip-0)">
</g>
<path fill-rule="evenodd" fill="rgb(18.968201%, 12.950134%, 13.3255%)" fill-opacity="1" d="M 147.832031 287.464844 C 111 287.464844 81.132812 317.332031 81.132812 354.160156 C 81.132812 390.992188 111 420.859375 147.832031 420.859375 C 184.660156 420.859375 214.527344 390.992188 214.527344 354.160156 C 214.527344 317.332031 184.660156 287.464844 147.832031 287.464844 "/>
<path fill-rule="evenodd" fill="rgb(58.824158%, 32.940674%, 15.686035%)" fill-opacity="1" d="M 140.910156 305.167969 C 120.714844 309.839844 100.441406 330.1875 100.441406 353.875 C 100.441406 377.566406 120.714844 398.484375 140.910156 403.152344 C 140.910156 283.3125 140.910156 325.621094 140.910156 403.152344 C 132.667969 396.507812 123.757812 392.015625 125.105469 378.40625 C 125.753906 371.808594 123.816406 360.742188 123.816406 354.265625 C 123.816406 345.011719 125.289062 335.933594 124.957031 326.578125 C 124.59375 316.242188 130.96875 312.230469 140.910156 305.167969 "/>
<path fill-rule="evenodd" fill="rgb(100%, 100%, 100%)" fill-opacity="1" d="M 147.445312 304.742188 C 120.15625 304.742188 98.023438 326.871094 98.023438 354.160156 C 98.023438 381.449219 120.15625 403.582031 147.445312 403.582031 C 168.902344 403.582031 187.167969 389.894531 193.996094 370.78125 L 193.976562 370.78125 L 193.980469 370.78125 C 192.667969 370.78125 191.417969 370.769531 190.230469 370.777344 C 189.261719 370.785156 188.628906 370.761719 187.273438 370.953125 C 181.078125 371.84375 175.957031 374.675781 172.144531 378.570312 C 167.667969 383.148438 165 389.207031 164.527344 395.332031 C 164.511719 395.527344 164.5 395.726562 164.488281 395.925781 C 159.230469 398.074219 153.476562 399.261719 147.445312 399.261719 C 122.539062 399.261719 102.34375 379.066406 102.34375 354.160156 C 102.34375 329.257812 122.539062 309.0625 147.445312 309.0625 C 166.480469 309.0625 182.761719 320.859375 189.382812 337.542969 L 193.996094 337.542969 C 187.167969 318.425781 168.902344 304.742188 147.445312 304.742188 Z M 187.351562 375.183594 C 186.664062 376.484375 185.914062 377.75 185.105469 378.972656 C 181.074219 385.078125 175.601562 390.144531 169.167969 393.6875 C 169.144531 393.703125 169.121094 393.714844 169.097656 393.730469 C 169.234375 392.945312 169.410156 392.179688 169.613281 391.433594 C 171.898438 383.105469 178.597656 376.496094 187.34375 375.183594 Z M 187.351562 375.183594 "/>
<path fill-rule="evenodd" fill="rgb(100%, 100%, 100%)" fill-opacity="1" d="M 140.910156 305.167969 C 120.714844 309.839844 122.207031 329.535156 122.207031 353.222656 C 122.207031 376.914062 120.714844 398.480469 140.910156 403.152344 L 140.910156 399.039062 C 127.808594 395.703125 125.996094 384.617188 125.882812 370.445312 C 125.839844 365.113281 125.882812 359.050781 125.882812 353.222656 C 125.882812 348.953125 125.933594 343.714844 125.882812 339.789062 C 125.695312 324.128906 126.496094 312.957031 140.910156 309.285156 Z M 140.910156 305.167969 "/>
<path fill-rule="evenodd" fill="rgb(100%, 100%, 100%)" fill-opacity="1" d="M 140.910156 305.167969 C 161.105469 309.839844 159.609375 329.535156 159.609375 353.222656 C 159.609375 376.914062 161.105469 398.480469 140.910156 403.152344 L 140.910156 399.039062 C 154.007812 395.703125 155.824219 384.617188 155.933594 370.445312 C 155.976562 365.113281 155.933594 359.050781 155.933594 353.222656 C 155.933594 348.953125 155.886719 343.714844 155.933594 339.789062 C 156.125 324.128906 155.324219 312.957031 140.910156 309.285156 Z M 140.910156 305.167969 "/>
<path fill-rule="evenodd" fill="rgb(100%, 100%, 100%)" fill-opacity="1" d="M 138.820312 306.757812 L 142.867188 306.757812 L 142.867188 401.203125 L 138.820312 401.203125 Z M 138.820312 306.757812 "/>
<path fill-rule="evenodd" fill="rgb(100%, 100%, 100%)" fill-opacity="1" d="M 118.867188 315.042969 L 127.300781 315.042969 L 127.300781 315.820312 L 118.867188 315.820312 Z M 118.867188 315.042969 "/>
<path fill-rule="evenodd" fill="rgb(100%, 100%, 100%)" fill-opacity="1" d="M 115.015625 318.890625 L 127.300781 318.890625 L 127.300781 319.664062 L 115.015625 319.664062 Z M 115.015625 318.890625 "/>
<path fill-rule="evenodd" fill="rgb(100%, 100%, 100%)" fill-opacity="1" d="M 110.339844 322.734375 L 124.957031 322.734375 L 124.957031 323.511719 L 110.339844 323.511719 Z M 110.339844 322.734375 "/>
<path fill-rule="evenodd" fill="rgb(100%, 100%, 100%)" fill-opacity="1" d="M 108.417969 326.578125 L 124.957031 326.578125 L 124.957031 327.355469 L 108.417969 327.355469 Z M 108.417969 326.578125 "/>
<path fill-rule="evenodd" fill="rgb(100%, 100%, 100%)" fill-opacity="1" d="M 106.078125 330.421875 L 124.957031 330.421875 L 124.957031 331.199219 L 106.078125 331.199219 Z M 106.078125 330.421875 "/>
<path fill-rule="evenodd" fill="rgb(100%, 100%, 100%)" fill-opacity="1" d="M 103.742188 334.265625 L 124.957031 334.265625 L 124.957031 335.042969 L 103.742188 335.042969 Z M 103.742188 334.265625 "/>
<path fill-rule="evenodd" fill="rgb(100%, 100%, 100%)" fill-opacity="1" d="M 102.929688 338.109375 L 124.957031 338.109375 L 124.957031 338.886719 L 102.929688 338.886719 Z M 102.929688 338.109375 "/>
<path fill-rule="evenodd" fill="rgb(100%, 100%, 100%)" fill-opacity="1" d="M 102.011719 341.953125 L 123.816406 341.953125 L 123.816406 342.730469 L 102.011719 342.730469 Z M 102.011719 341.953125 "/>
<path fill-rule="evenodd" fill="rgb(100%, 100%, 100%)" fill-opacity="1" d="M 100.441406 345.800781 L 123.816406 345.800781 L 123.816406 346.578125 L 100.441406 346.578125 Z M 100.441406 345.800781 "/>
<path fill-rule="evenodd" fill="rgb(100%, 100%, 100%)" fill-opacity="1" d="M 99.265625 349.644531 L 123.816406 349.644531 L 123.816406 350.421875 L 99.265625 350.421875 Z M 99.265625 349.644531 "/>
<path fill-rule="evenodd" fill="rgb(100%, 100%, 100%)" fill-opacity="1" d="M 100.441406 353.488281 L 123.816406 353.488281 L 123.816406 354.265625 L 100.441406 354.265625 Z M 100.441406 353.488281 "/>
<path fill-rule="evenodd" fill="rgb(100%, 100%, 100%)" fill-opacity="1" d="M 100.441406 357.332031 L 123.816406 357.332031 L 123.816406 358.109375 L 100.441406 358.109375 Z M 100.441406 357.332031 "/>
<path fill-rule="evenodd" fill="rgb(100%, 100%, 100%)" fill-opacity="1" d="M 100.441406 361.175781 L 123.816406 361.175781 L 123.816406 361.953125 L 100.441406 361.953125 Z M 100.441406 361.175781 "/>
<path fill-rule="evenodd" fill="rgb(100%, 100%, 100%)" fill-opacity="1" d="M 100.441406 365.019531 L 123.816406 365.019531 L 123.816406 365.796875 L 100.441406 365.796875 Z M 100.441406 365.019531 "/>
<path fill-rule="evenodd" fill="rgb(100%, 100%, 100%)" fill-opacity="1" d="M 102.230469 368.867188 L 123.816406 368.867188 L 123.816406 369.644531 L 102.230469 369.644531 Z M 102.230469 368.867188 "/>
<path fill-rule="evenodd" fill="rgb(100%, 100%, 100%)" fill-opacity="1" d="M 102.230469 372.710938 L 123.816406 372.710938 L 123.816406 373.488281 L 102.230469 373.488281 Z M 102.230469 372.710938 "/>
<path fill-rule="evenodd" fill="rgb(100%, 100%, 100%)" fill-opacity="1" d="M 105.253906 376.554688 L 123.816406 376.554688 L 123.816406 377.332031 L 105.253906 377.332031 Z M 105.253906 376.554688 "/>
<path fill-rule="evenodd" fill="rgb(100%, 100%, 100%)" fill-opacity="1" d="M 108.554688 380.398438 L 124.917969 380.398438 L 124.917969 381.175781 L 108.554688 381.175781 Z M 108.554688 380.398438 "/>
<path fill-rule="evenodd" fill="rgb(100%, 100%, 100%)" fill-opacity="1" d="M 110.757812 384.242188 L 124.917969 384.242188 L 124.917969 385.019531 L 110.757812 385.019531 Z M 110.757812 384.242188 "/>
<path fill-rule="evenodd" fill="rgb(100%, 100%, 100%)" fill-opacity="1" d="M 114.742188 388.085938 L 127.300781 388.085938 L 127.300781 388.863281 L 114.742188 388.863281 Z M 114.742188 388.085938 "/>
<path fill-rule="evenodd" fill="rgb(100%, 100%, 100%)" fill-opacity="1" d="M 119.003906 391.933594 L 127.300781 391.933594 L 127.300781 392.707031 L 119.003906 392.707031 Z M 119.003906 391.933594 "/>
<path fill-rule="nonzero" fill="rgb(18.968201%, 12.950134%, 13.3255%)" fill-opacity="1" d="M 237.886719 292.242188 C 236.582031 292.242188 235.925781 292.929688 235.925781 294.300781 L 235.925781 299.449219 C 235.925781 300.824219 236.582031 301.511719 237.886719 301.511719 L 244.261719 301.511719 L 244.261719 305.140625 L 237.886719 305.140625 C 236.582031 305.140625 235.925781 305.824219 235.925781 307.199219 L 235.925781 318.035156 L 232.492188 318.035156 L 232.492188 290.425781 C 232.492188 289.21875 233.066406 288.613281 234.210938 288.613281 L 245.734375 288.613281 L 245.734375 292.242188 Z M 260.710938 318.035156 L 260.710938 307.199219 C 260.710938 305.824219 260.054688 305.140625 258.746094 305.140625 L 256.296875 305.140625 C 254.988281 305.140625 254.335938 305.824219 254.335938 307.199219 L 254.335938 318.035156 L 250.902344 318.035156 L 250.902344 295.578125 C 250.902344 293.679688 251.539062 292.046875 252.8125 290.671875 C 254.089844 289.300781 255.660156 288.613281 257.523438 288.613281 C 259.386719 288.613281 260.953125 289.300781 262.230469 290.671875 C 263.503906 292.046875 264.140625 293.679688 264.140625 295.578125 L 264.140625 318.035156 Z M 260.710938 295.578125 C 260.710938 294.660156 260.40625 293.875 259.800781 293.222656 C 259.199219 292.570312 258.4375 292.242188 257.523438 292.242188 C 256.605469 292.242188 255.847656 292.570312 255.242188 293.222656 C 254.636719 293.875 254.335938 294.660156 254.335938 295.578125 L 254.335938 299.449219 C 254.335938 300.824219 254.988281 301.511719 256.296875 301.511719 L 258.746094 301.511719 C 260.054688 301.511719 260.710938 300.824219 260.710938 299.449219 Z M 270.683594 318.035156 L 278.1875 294.351562 C 278.121094 292.945312 277.464844 292.242188 276.222656 292.242188 L 270.390625 292.242188 L 270.390625 288.613281 L 283.335938 288.613281 L 275.882812 312.25 C 275.882812 313.457031 276.4375 314.179688 277.546875 314.40625 L 283.628906 314.40625 L 283.628906 318.035156 Z M 291.59375 318.035156 C 290.449219 318.035156 289.875 317.429688 289.875 316.222656 L 289.875 290.425781 C 289.875 289.21875 290.449219 288.613281 291.59375 288.613281 L 303.117188 288.613281 L 303.117188 292.242188 L 295.269531 292.242188 C 293.960938 292.242188 293.308594 292.929688 293.308594 294.300781 L 293.308594 299.449219 C 293.308594 300.824219 293.960938 301.511719 295.269531 301.511719 L 300.664062 301.511719 L 300.664062 305.140625 L 295.269531 305.140625 C 293.960938 305.140625 293.308594 305.824219 293.308594 307.199219 L 293.308594 312.347656 C 293.308594 313.71875 293.960938 314.40625 295.269531 314.40625 L 303.117188 314.40625 L 303.117188 318.035156 Z M 318.972656 318.035156 L 314.902344 305.238281 C 314.609375 304.253906 314.21875 303.765625 313.726562 303.765625 C 313.105469 303.765625 312.796875 304.320312 312.796875 305.433594 L 312.796875 318.035156 L 309.363281 318.035156 L 309.363281 288.613281 L 312.992188 288.613281 L 317.160156 301.65625 C 317.421875 302.472656 317.78125 302.882812 318.238281 302.882812 C 318.859375 302.882812 319.171875 302.359375 319.171875 301.3125 L 319.171875 288.613281 L 322.601562 288.613281 L 322.601562 318.035156 Z M 335.46875 318.035156 L 330.566406 318.035156 C 329.421875 318.035156 328.851562 317.429688 328.851562 316.222656 L 328.851562 290.425781 C 328.851562 289.21875 329.421875 288.613281 330.566406 288.613281 L 335.46875 288.613281 C 337.332031 288.613281 338.902344 289.300781 340.179688 290.671875 C 341.453125 292.046875 342.089844 293.679688 342.089844 295.578125 L 342.089844 311.070312 C 342.089844 312.96875 341.453125 314.601562 340.179688 315.976562 C 338.902344 317.347656 337.332031 318.035156 335.46875 318.035156 Z M 338.65625 295.578125 C 338.65625 294.660156 338.355469 293.875 337.75 293.222656 C 337.144531 292.570312 336.386719 292.242188 335.46875 292.242188 C 334.652344 292.242188 334.082031 292.273438 333.753906 292.339844 C 332.773438 292.570312 332.28125 293.222656 332.28125 294.300781 L 332.28125 312.347656 C 332.28125 313.425781 332.773438 314.078125 333.753906 314.308594 C 334.082031 314.375 334.652344 314.40625 335.46875 314.40625 C 336.386719 314.40625 337.144531 314.078125 337.75 313.425781 C 338.355469 312.773438 338.65625 311.988281 338.65625 311.070312 Z M 358.144531 318.035156 L 358.144531 307.199219 C 358.144531 305.824219 357.492188 305.140625 356.183594 305.140625 L 353.730469 305.140625 C 352.421875 305.140625 351.769531 305.824219 351.769531 307.199219 L 351.769531 318.035156 L 348.335938 318.035156 L 348.335938 295.578125 C 348.335938 293.679688 348.972656 292.046875 350.25 290.671875 C 351.523438 289.300781 353.09375 288.613281 354.957031 288.613281 C 356.820312 288.613281 358.390625 289.300781 359.664062 290.671875 C 360.9375 292.046875 361.578125 293.679688 361.578125 295.578125 L 361.578125 318.035156 Z M 358.144531 295.578125 C 358.144531 294.660156 357.84375 293.875 357.238281 293.222656 C 356.632812 292.570312 355.871094 292.242188 354.957031 292.242188 C 354.042969 292.242188 353.28125 292.570312 352.675781 293.222656 C 352.070312 293.875 351.769531 294.660156 351.769531 295.578125 L 351.769531 299.449219 C 351.769531 300.824219 352.421875 301.511719 353.730469 301.511719 L 356.183594 301.511719 C 357.492188 301.511719 358.144531 300.824219 358.144531 299.449219 Z M 358.144531 295.578125 "/>
<path fill-rule="nonzero" fill="rgb(18.968201%, 12.950134%, 13.3255%)" fill-opacity="1" d="M 372.007812 420.859375 C 371.054688 420.859375 370.234375 420.527344 369.550781 419.859375 C 368.867188 419.195312 368.480469 418.394531 368.390625 417.457031 L 370.308594 417.457031 C 370.378906 417.871094 370.578125 418.210938 370.902344 418.46875 C 371.222656 418.730469 371.59375 418.863281 372.007812 418.863281 C 372.90625 418.863281 373.464844 418.429688 373.679688 417.566406 C 373.734375 417.296875 373.761719 416.640625 373.761719 415.597656 C 373.761719 415.09375 373.59375 414.660156 373.261719 414.300781 C 372.929688 413.941406 372.511719 413.761719 372.007812 413.761719 C 370.980469 413.761719 370.117188 413.382812 369.414062 412.628906 C 368.714844 411.871094 368.363281 410.972656 368.363281 409.929688 L 368.363281 408.496094 C 368.363281 407.453125 368.714844 406.554688 369.414062 405.800781 C 370.117188 405.042969 370.980469 404.664062 372.007812 404.664062 C 372.960938 404.664062 373.777344 405 374.464844 405.664062 C 375.148438 406.328125 375.535156 407.128906 375.625 408.066406 L 373.707031 408.066406 C 373.636719 407.652344 373.4375 407.316406 373.113281 407.054688 C 372.789062 406.792969 372.421875 406.664062 372.007812 406.664062 C 371.125 406.664062 370.566406 407.09375 370.332031 407.957031 C 370.28125 408.210938 370.253906 408.867188 370.253906 409.929688 C 370.253906 410.433594 370.417969 410.863281 370.753906 411.222656 C 371.085938 411.582031 371.503906 411.765625 372.007812 411.765625 C 373.03125 411.765625 373.894531 412.140625 374.597656 412.898438 C 375.300781 413.652344 375.652344 414.554688 375.652344 415.597656 L 375.652344 417.027344 C 375.652344 418.070312 375.300781 418.96875 374.597656 419.726562 C 373.894531 420.480469 373.03125 420.859375 372.007812 420.859375 Z M 389.386719 413.761719 L 388.714844 413.761719 C 387.992188 413.761719 387.632812 414.140625 387.632812 414.894531 L 387.632812 420.859375 L 385.746094 420.859375 L 385.746094 405.664062 C 385.746094 405 386.058594 404.664062 386.6875 404.664062 L 389.386719 404.664062 C 390.414062 404.664062 391.277344 405.042969 391.980469 405.800781 C 392.679688 406.554688 393.03125 407.453125 393.03125 408.496094 L 393.03125 409.929688 C 393.03125 410.972656 392.679688 411.871094 391.980469 412.628906 C 391.277344 413.382812 390.414062 413.761719 389.386719 413.761719 Z M 391.140625 408.496094 C 391.140625 407.996094 390.976562 407.5625 390.644531 407.203125 C 390.308594 406.84375 389.890625 406.664062 389.386719 406.664062 L 388.714844 406.664062 C 387.992188 406.664062 387.632812 407.039062 387.632812 407.796875 L 387.632812 410.628906 C 387.632812 411.386719 387.992188 411.765625 388.714844 411.765625 L 389.386719 411.765625 C 389.890625 411.765625 390.308594 411.582031 390.644531 411.222656 C 390.976562 410.863281 391.140625 410.433594 391.140625 409.929688 Z M 404.070312 420.859375 C 403.441406 420.859375 403.125 420.527344 403.125 419.859375 L 403.125 405.664062 C 403.125 405 403.441406 404.664062 404.070312 404.664062 L 410.414062 404.664062 L 410.414062 406.664062 L 406.09375 406.664062 C 405.375 406.664062 405.015625 407.039062 405.015625 407.796875 L 405.015625 410.628906 C 405.015625 411.386719 405.375 411.765625 406.09375 411.765625 L 409.0625 411.765625 L 409.0625 413.761719 L 406.09375 413.761719 C 405.375 413.761719 405.015625 414.140625 405.015625 414.894531 L 405.015625 417.726562 C 405.015625 418.484375 405.375 418.863281 406.09375 418.863281 L 410.414062 418.863281 L 410.414062 420.859375 Z M 424.148438 420.859375 C 423.125 420.859375 422.261719 420.480469 421.558594 419.726562 C 420.855469 418.96875 420.507812 418.070312 420.507812 417.027344 L 420.507812 408.496094 C 420.507812 407.453125 420.855469 406.554688 421.558594 405.800781 C 422.261719 405.042969 423.125 404.664062 424.148438 404.664062 C 425.101562 404.664062 425.921875 405 426.605469 405.664062 C 427.289062 406.328125 427.675781 407.128906 427.765625 408.066406 L 425.851562 408.066406 C 425.777344 407.652344 425.582031 407.316406 425.257812 407.054688 C 424.933594 406.792969 424.5625 406.664062 424.148438 406.664062 C 423.644531 406.664062 423.226562 406.84375 422.894531 407.203125 C 422.5625 407.5625 422.394531 407.996094 422.394531 408.496094 L 422.394531 417.027344 C 422.394531 417.53125 422.5625 417.960938 422.894531 418.320312 C 423.226562 418.683594 423.644531 418.863281 424.148438 418.863281 C 424.5625 418.863281 424.933594 418.730469 425.257812 418.46875 C 425.582031 418.210938 425.777344 417.871094 425.851562 417.457031 L 427.765625 417.457031 C 427.675781 418.394531 427.289062 419.195312 426.605469 419.859375 C 425.921875 420.527344 425.101562 420.859375 424.148438 420.859375 Z M 437.886719 420.859375 L 437.886719 404.664062 L 439.777344 404.664062 L 439.777344 420.859375 Z M 455.269531 420.859375 L 455.269531 414.894531 C 455.269531 414.140625 454.910156 413.761719 454.1875 413.761719 L 452.839844 413.761719 C 452.121094 413.761719 451.757812 414.140625 451.757812 414.894531 L 451.757812 420.859375 L 449.871094 420.859375 L 449.871094 408.496094 C 449.871094 407.453125 450.222656 406.554688 450.921875 405.800781 C 451.625 405.042969 452.488281 404.664062 453.515625 404.664062 C 454.539062 404.664062 455.402344 405.042969 456.105469 405.800781 C 456.804688 406.554688 457.15625 407.453125 457.15625 408.496094 L 457.15625 420.859375 Z M 455.269531 408.496094 C 455.269531 407.996094 455.101562 407.5625 454.769531 407.203125 C 454.4375 406.84375 454.019531 406.664062 453.515625 406.664062 C 453.011719 406.664062 452.59375 406.84375 452.257812 407.203125 C 451.925781 407.5625 451.757812 407.996094 451.757812 408.496094 L 451.757812 410.628906 C 451.757812 411.386719 452.121094 411.765625 452.839844 411.765625 L 454.1875 411.765625 C 454.910156 411.765625 455.269531 411.386719 455.269531 410.628906 Z M 467.25 420.859375 L 467.25 404.664062 L 469.140625 404.664062 L 469.140625 417.726562 C 469.140625 418.484375 469.5 418.863281 470.21875 418.863281 L 474.539062 418.863281 L 474.539062 420.859375 Z M 490.300781 406.664062 C 489.582031 406.664062 489.21875 407.039062 489.21875 407.796875 L 489.21875 420.859375 L 487.332031 420.859375 L 487.332031 407.796875 C 487.332031 407.039062 486.972656 406.664062 486.25 406.664062 L 484.632812 406.664062 L 484.632812 404.664062 L 491.917969 404.664062 L 491.917969 406.664062 Z M 506.601562 412.679688 L 506.601562 420.859375 L 504.710938 420.859375 L 504.710938 412.679688 L 502.175781 404.664062 L 504.011719 404.664062 L 505.171875 408.28125 C 505.296875 408.550781 505.46875 408.6875 505.683594 408.6875 C 505.917969 408.6875 506.078125 408.535156 506.167969 408.226562 L 507.304688 404.664062 L 509.136719 404.664062 Z M 537.828125 420.859375 C 536.800781 420.859375 535.9375 420.480469 535.238281 419.726562 C 534.535156 418.96875 534.183594 418.070312 534.183594 417.027344 L 534.183594 408.496094 C 534.183594 407.453125 534.535156 406.554688 535.238281 405.800781 C 535.9375 405.042969 536.800781 404.664062 537.828125 404.664062 C 538.78125 404.664062 539.601562 405 540.285156 405.664062 C 540.96875 406.328125 541.355469 407.128906 541.445312 408.066406 L 539.527344 408.066406 C 539.457031 407.652344 539.257812 407.316406 538.933594 407.054688 C 538.609375 406.792969 538.242188 406.664062 537.828125 406.664062 C 537.324219 406.664062 536.90625 406.84375 536.574219 407.203125 C 536.238281 407.5625 536.074219 407.996094 536.074219 408.496094 L 536.074219 417.027344 C 536.074219 417.53125 536.238281 417.960938 536.574219 418.320312 C 536.90625 418.683594 537.324219 418.863281 537.828125 418.863281 C 538.242188 418.863281 538.609375 418.730469 538.933594 418.46875 C 539.257812 418.210938 539.457031 417.871094 539.527344 417.457031 L 541.445312 417.457031 C 541.355469 418.394531 540.96875 419.195312 540.285156 419.859375 C 539.601562 420.527344 538.78125 420.859375 537.828125 420.859375 Z M 555.207031 420.859375 C 554.183594 420.859375 553.320312 420.480469 552.617188 419.726562 C 551.917969 418.96875 551.566406 418.070312 551.566406 417.027344 L 551.566406 408.496094 C 551.566406 407.453125 551.917969 406.554688 552.617188 405.800781 C 553.320312 405.042969 554.183594 404.664062 555.207031 404.664062 C 556.234375 404.664062 557.097656 405.042969 557.800781 405.800781 C 558.5 406.554688 558.851562 407.453125 558.851562 408.496094 L 558.851562 417.027344 C 558.851562 418.070312 558.5 418.96875 557.800781 419.726562 C 557.097656 420.480469 556.234375 420.859375 555.207031 420.859375 Z M 556.960938 408.496094 C 556.960938 407.996094 556.796875 407.5625 556.464844 407.203125 C 556.132812 406.84375 555.710938 406.664062 555.207031 406.664062 C 554.703125 406.664062 554.285156 406.84375 553.953125 407.203125 C 553.621094 407.5625 553.453125 407.996094 553.453125 408.496094 L 553.453125 417.027344 C 553.453125 417.53125 553.621094 417.960938 553.953125 418.320312 C 554.285156 418.683594 554.703125 418.863281 555.207031 418.863281 C 555.710938 418.863281 556.132812 418.683594 556.464844 418.320312 C 556.796875 417.960938 556.960938 417.53125 556.960938 417.027344 Z M 571.914062 406.664062 C 571.195312 406.664062 570.835938 407.039062 570.835938 407.796875 L 570.835938 410.628906 C 570.835938 411.386719 571.195312 411.765625 571.914062 411.765625 L 575.421875 411.765625 L 575.421875 413.761719 L 571.914062 413.761719 C 571.195312 413.761719 570.835938 414.140625 570.835938 414.894531 L 570.835938 420.859375 L 568.945312 420.859375 L 568.945312 405.664062 C 568.945312 405 569.261719 404.664062 569.890625 404.664062 L 576.234375 404.664062 L 576.234375 406.664062 Z M 588.703125 406.664062 C 587.984375 406.664062 587.621094 407.039062 587.621094 407.796875 L 587.621094 410.628906 C 587.621094 411.386719 587.984375 411.765625 588.703125 411.765625 L 592.210938 411.765625 L 592.210938 413.761719 L 588.703125 413.761719 C 587.984375 413.761719 587.621094 414.140625 587.621094 414.894531 L 587.621094 420.859375 L 585.734375 420.859375 L 585.734375 405.664062 C 585.734375 405 586.046875 404.664062 586.679688 404.664062 L 593.019531 404.664062 L 593.019531 406.664062 Z M 603.464844 420.859375 C 602.835938 420.859375 602.519531 420.527344 602.519531 419.859375 L 602.519531 405.664062 C 602.519531 405 602.835938 404.664062 603.464844 404.664062 L 609.808594 404.664062 L 609.808594 406.664062 L 605.488281 406.664062 C 604.769531 406.664062 604.410156 407.039062 604.410156 407.796875 L 604.410156 410.628906 C 604.410156 411.386719 604.769531 411.765625 605.488281 411.765625 L 608.457031 411.765625 L 608.457031 413.761719 L 605.488281 413.761719 C 604.769531 413.761719 604.410156 414.140625 604.410156 414.894531 L 604.410156 417.726562 C 604.410156 418.484375 604.769531 418.863281 605.488281 418.863281 L 609.808594 418.863281 L 609.808594 420.859375 Z M 620.847656 420.859375 C 620.214844 420.859375 619.902344 420.527344 619.902344 419.859375 L 619.902344 405.664062 C 619.902344 405 620.214844 404.664062 620.847656 404.664062 L 627.1875 404.664062 L 627.1875 406.664062 L 622.871094 406.664062 C 622.152344 406.664062 621.789062 407.039062 621.789062 407.796875 L 621.789062 410.628906 C 621.789062 411.386719 622.152344 411.765625 622.871094 411.765625 L 625.839844 411.765625 L 625.839844 413.761719 L 622.871094 413.761719 C 622.152344 413.761719 621.789062 414.140625 621.789062 414.894531 L 621.789062 417.726562 C 621.789062 418.484375 622.152344 418.863281 622.871094 418.863281 L 627.1875 418.863281 L 627.1875 420.859375 Z M 620.847656 420.859375 "/>
<path fill-rule="nonzero" fill="rgb(18.968201%, 12.950134%, 13.3255%)" fill-opacity="1" d="M 270.648438 361.363281 L 280.601562 369.253906 C 280.808594 369.425781 280.929688 369.648438 280.964844 369.925781 C 280.996094 370.199219 280.929688 370.441406 280.757812 370.648438 C 278.210938 373.777344 275.109375 376.234375 271.445312 378.023438 C 267.785156 379.8125 263.855469 380.703125 259.660156 380.703125 C 255.980469 380.703125 252.476562 380 249.140625 378.589844 C 245.804688 377.179688 242.925781 375.273438 240.5 372.863281 C 238.074219 370.457031 236.148438 367.585938 234.722656 364.25 C 233.296875 360.914062 232.582031 357.425781 232.582031 353.78125 C 232.582031 350.136719 233.296875 346.652344 234.722656 343.335938 C 236.148438 340.015625 238.074219 337.15625 240.5 334.746094 C 242.925781 332.339844 245.804688 330.421875 249.140625 328.996094 C 252.476562 327.570312 255.980469 326.855469 259.660156 326.855469 C 263.820312 326.855469 267.742188 327.75 271.421875 329.539062 C 275.101562 331.328125 278.195312 333.769531 280.707031 336.863281 C 280.878906 337.101562 280.945312 337.359375 280.910156 337.636719 C 280.878906 337.910156 280.757812 338.132812 280.550781 338.308594 L 270.597656 346.148438 C 270.390625 346.320312 270.15625 346.394531 269.898438 346.378906 C 269.640625 346.363281 269.425781 346.25 269.253906 346.042969 C 268.050781 344.703125 266.597656 343.601562 264.898438 342.742188 C 263.195312 341.882812 261.449219 341.453125 259.660156 341.453125 C 256.222656 341.453125 253.300781 342.65625 250.894531 345.0625 C 248.484375 347.46875 247.28125 350.375 247.28125 353.78125 C 247.28125 357.183594 248.484375 360.089844 250.894531 362.496094 C 253.300781 364.90625 256.222656 366.109375 259.660156 366.109375 C 261.449219 366.109375 263.203125 365.679688 264.921875 364.816406 C 266.640625 363.957031 268.101562 362.839844 269.304688 361.464844 C 269.480469 361.257812 269.695312 361.148438 269.953125 361.128906 C 270.210938 361.113281 270.441406 361.191406 270.648438 361.363281 Z M 317.199219 328.660156 C 317.199219 328.351562 317.292969 328.101562 317.480469 327.914062 C 317.671875 327.722656 317.902344 327.628906 318.179688 327.628906 L 330.660156 327.628906 C 330.933594 327.628906 331.167969 327.722656 331.355469 327.914062 C 331.546875 328.101562 331.640625 328.351562 331.640625 328.660156 L 331.640625 378.175781 C 331.640625 378.488281 331.546875 378.738281 331.355469 378.925781 C 331.167969 379.113281 330.933594 379.207031 330.660156 379.207031 L 318.179688 379.207031 C 317.902344 379.207031 317.671875 379.113281 317.480469 378.925781 C 317.292969 378.738281 317.199219 378.488281 317.199219 378.175781 L 317.199219 359.558594 L 299.195312 359.558594 L 299.195312 378.175781 C 299.195312 378.488281 299.09375 378.738281 298.886719 378.925781 C 298.679688 379.113281 298.441406 379.207031 298.164062 379.207031 L 285.734375 379.207031 C 285.425781 379.207031 285.175781 379.113281 284.988281 378.925781 C 284.796875 378.738281 284.703125 378.488281 284.703125 378.175781 L 284.703125 328.660156 C 284.703125 328.351562 284.796875 328.101562 284.988281 327.914062 C 285.175781 327.722656 285.425781 327.628906 285.734375 327.628906 L 298.164062 327.628906 C 298.441406 327.628906 298.679688 327.722656 298.886719 327.914062 C 299.09375 328.101562 299.195312 328.351562 299.195312 328.660156 L 299.195312 347.28125 L 317.199219 347.28125 Z M 367.359375 327.628906 C 367.804688 327.628906 368.113281 327.851562 368.285156 328.300781 L 386.546875 377.558594 C 386.582031 377.660156 386.597656 377.765625 386.597656 377.867188 L 386.597656 378.230469 C 386.597656 378.503906 386.503906 378.738281 386.3125 378.925781 C 386.125 379.113281 385.894531 379.207031 385.617188 379.207031 L 372.929688 379.207031 C 372.449219 379.207031 372.136719 378.984375 372 378.539062 L 369.265625 371.164062 L 352.761719 371.164062 L 349.976562 378.539062 C 349.839844 378.984375 349.527344 379.207031 349.046875 379.207031 L 336.410156 379.207031 C 336.101562 379.207031 335.851562 379.113281 335.664062 378.925781 C 335.472656 378.738281 335.378906 378.503906 335.378906 378.230469 L 335.378906 377.867188 C 335.378906 377.765625 335.398438 377.644531 335.429688 377.507812 L 353.691406 328.300781 C 353.863281 327.851562 354.171875 327.628906 354.617188 327.628906 Z M 357.457031 358.472656 L 364.574219 358.472656 L 360.960938 348.933594 Z M 390.335938 378.175781 L 390.335938 328.660156 C 390.335938 328.351562 390.429688 328.101562 390.621094 327.914062 C 390.808594 327.722656 391.058594 327.628906 391.367188 327.628906 L 415.816406 327.628906 C 417.984375 327.628906 419.976562 328.007812 421.800781 328.765625 C 423.621094 329.519531 425.238281 330.648438 426.648438 332.144531 C 428.058594 333.640625 429.160156 335.574219 429.949219 337.945312 C 430.742188 340.316406 431.136719 343.035156 431.136719 346.09375 C 431.136719 349.15625 430.742188 351.878906 429.949219 354.269531 C 429.160156 356.660156 428.058594 358.59375 426.648438 360.074219 C 425.238281 361.550781 423.621094 362.667969 421.800781 363.425781 C 419.976562 364.183594 417.984375 364.558594 415.816406 364.558594 L 404.832031 364.558594 L 404.832031 378.175781 C 404.832031 378.488281 404.726562 378.738281 404.519531 378.925781 C 404.316406 379.113281 404.074219 379.207031 403.800781 379.207031 L 391.367188 379.207031 C 391.058594 379.207031 390.808594 379.113281 390.621094 378.925781 C 390.429688 378.738281 390.335938 378.488281 390.335938 378.175781 Z M 411.226562 352.542969 C 412.738281 352.542969 414.003906 351.957031 415.015625 350.789062 C 416.03125 349.621094 416.539062 348.054688 416.539062 346.09375 C 416.539062 344.136719 416.03125 342.578125 415.015625 341.425781 C 414.003906 340.273438 412.738281 339.699219 411.226562 339.699219 L 405.296875 339.699219 C 404.984375 339.699219 404.832031 339.855469 404.832031 340.164062 L 404.832031 352.027344 C 404.832031 352.371094 404.984375 352.542969 405.296875 352.542969 Z M 458.757812 327.628906 C 459.203125 327.628906 459.511719 327.851562 459.683594 328.300781 L 477.945312 377.558594 C 477.980469 377.660156 477.996094 377.765625 477.996094 377.867188 L 477.996094 378.230469 C 477.996094 378.503906 477.902344 378.738281 477.710938 378.925781 C 477.523438 379.113281 477.289062 379.207031 477.015625 379.207031 L 464.328125 379.207031 C 463.847656 379.207031 463.535156 378.984375 463.398438 378.539062 L 460.664062 371.164062 L 444.160156 371.164062 L 441.375 378.539062 C 441.238281 378.984375 440.929688 379.207031 440.445312 379.207031 L 427.808594 379.207031 C 427.5 379.207031 427.25 379.113281 427.0625 378.925781 C 426.871094 378.738281 426.777344 378.503906 426.777344 378.230469 L 426.777344 377.867188 C 426.777344 377.765625 426.796875 377.644531 426.828125 377.507812 L 445.089844 328.300781 C 445.261719 327.851562 445.570312 327.628906 446.015625 327.628906 Z M 448.855469 358.472656 L 455.972656 358.472656 L 452.359375 348.933594 Z M 502.316406 327.628906 C 505.511719 327.628906 508.445312 328.136719 511.109375 329.152344 C 513.773438 330.164062 516.148438 331.679688 518.226562 333.691406 C 520.308594 335.703125 521.933594 338.394531 523.101562 341.761719 C 524.269531 345.132812 524.855469 349.019531 524.855469 353.417969 C 524.855469 357.820312 524.269531 361.707031 523.101562 365.078125 C 521.933594 368.445312 520.308594 371.136719 518.226562 373.148438 C 516.148438 375.160156 513.773438 376.671875 511.109375 377.6875 C 508.445312 378.703125 505.511719 379.207031 502.316406 379.207031 L 482.765625 379.207031 C 482.457031 379.207031 482.207031 379.113281 482.019531 378.925781 C 481.828125 378.738281 481.734375 378.488281 481.734375 378.175781 L 481.734375 328.660156 C 481.734375 328.351562 481.828125 328.101562 482.019531 327.914062 C 482.207031 327.722656 482.457031 327.628906 482.765625 327.628906 Z M 499.066406 366.984375 C 502.367188 366.984375 505.050781 365.851562 507.113281 363.582031 C 509.175781 361.3125 510.207031 357.90625 510.207031 353.367188 C 510.207031 348.828125 509.175781 345.425781 507.113281 343.15625 C 505.050781 340.886719 502.367188 339.75 499.066406 339.75 L 496.695312 339.75 C 496.382812 339.75 496.230469 339.921875 496.230469 340.265625 L 496.230469 366.519531 C 496.230469 366.828125 496.382812 366.984375 496.695312 366.984375 Z M 534.628906 319.945312 C 534.148438 319.566406 534.097656 319.121094 534.476562 318.601562 C 534.886719 317.984375 535.351562 317.390625 535.867188 316.824219 C 536.382812 316.257812 537.078125 315.585938 537.957031 314.8125 C 538.832031 314.039062 539.832031 313.410156 540.949219 312.929688 C 542.066406 312.449219 543.210938 312.207031 544.378906 312.207031 C 545.546875 312.207031 546.726562 312.492188 547.910156 313.058594 C 549.097656 313.625 550.148438 314.195312 551.058594 314.761719 C 551.96875 315.328125 552.683594 315.613281 553.199219 315.613281 C 554.574219 315.613281 556.019531 314.613281 557.53125 312.621094 C 557.703125 312.378906 557.925781 312.242188 558.203125 312.207031 C 558.476562 312.171875 558.734375 312.257812 558.976562 312.464844 L 563.976562 316.589844 C 564.390625 316.96875 564.460938 317.398438 564.183594 317.882812 C 563.839844 318.5 563.417969 319.121094 562.921875 319.738281 C 562.421875 320.355469 561.761719 321.070312 560.933594 321.878906 C 560.109375 322.6875 559.121094 323.332031 557.96875 323.8125 C 556.816406 324.292969 555.589844 324.535156 554.28125 324.535156 C 553.320312 324.535156 552.363281 324.355469 551.417969 323.992188 C 550.472656 323.632812 549.691406 323.226562 549.070312 322.78125 C 548.453125 322.335938 547.816406 321.929688 547.164062 321.570312 C 546.511719 321.207031 545.941406 321.027344 545.460938 321.027344 C 544.121094 321.027344 542.660156 322.058594 541.078125 324.121094 C 540.90625 324.363281 540.683594 324.5 540.40625 324.535156 C 540.132812 324.570312 539.875 324.484375 539.632812 324.277344 Z M 555.417969 327.628906 C 555.863281 327.628906 556.171875 327.851562 556.34375 328.300781 L 574.605469 377.558594 C 574.636719 377.660156 574.65625 377.765625 574.65625 377.867188 L 574.65625 378.230469 C 574.65625 378.503906 574.5625 378.738281 574.371094 378.925781 C 574.183594 379.113281 573.949219 379.207031 573.675781 379.207031 L 560.988281 379.207031 C 560.503906 379.207031 560.195312 378.984375 560.058594 378.539062 L 557.324219 371.164062 L 540.820312 371.164062 L 538.035156 378.539062 C 537.898438 378.984375 537.585938 379.207031 537.105469 379.207031 L 524.46875 379.207031 C 524.160156 379.207031 523.910156 379.113281 523.71875 378.925781 C 523.53125 378.738281 523.4375 378.503906 523.4375 378.230469 L 523.4375 377.867188 C 523.4375 377.765625 523.453125 377.644531 523.488281 377.507812 L 541.746094 328.300781 C 541.917969 327.851562 542.230469 327.628906 542.675781 327.628906 Z M 545.511719 358.472656 L 552.632812 358.472656 L 549.019531 348.933594 Z M 589.277344 328.996094 C 592.648438 327.570312 596.179688 326.855469 599.878906 326.855469 C 603.574219 326.855469 607.105469 327.570312 610.476562 328.996094 C 613.847656 330.421875 616.753906 332.339844 619.195312 334.746094 C 621.636719 337.15625 623.578125 340.015625 625.023438 343.335938 C 626.464844 346.652344 627.1875 350.136719 627.1875 353.78125 C 627.1875 357.425781 626.464844 360.914062 625.023438 364.25 C 623.578125 367.585938 621.636719 370.457031 619.195312 372.863281 C 616.753906 375.273438 613.847656 377.179688 610.476562 378.589844 C 607.105469 380 603.574219 380.703125 599.878906 380.703125 C 596.179688 380.703125 592.648438 380 589.277344 378.589844 C 585.90625 377.179688 583.003906 375.273438 580.5625 372.863281 C 578.121094 370.457031 576.175781 367.585938 574.734375 364.25 C 573.289062 360.914062 572.566406 357.425781 572.566406 353.78125 C 572.566406 350.136719 573.289062 346.652344 574.734375 343.335938 C 576.175781 340.015625 578.121094 337.15625 580.5625 334.746094 C 583.003906 332.339844 585.90625 330.421875 589.277344 328.996094 Z M 591.03125 362.496094 C 593.472656 364.90625 596.421875 366.109375 599.878906 366.109375 C 603.332031 366.109375 606.28125 364.90625 608.722656 362.496094 C 611.164062 360.089844 612.386719 357.183594 612.386719 353.78125 C 612.386719 350.375 611.164062 347.46875 608.722656 345.0625 C 606.28125 342.65625 603.332031 341.453125 599.878906 341.453125 C 596.421875 341.453125 593.472656 342.65625 591.03125 345.0625 C 588.589844 347.46875 587.371094 350.375 587.371094 353.78125 C 587.371094 357.183594 588.589844 360.089844 591.03125 362.496094 "/>
<path fill-rule="evenodd" fill="rgb(85.882568%, 65.882874%, 52.549744%)" fill-opacity="1" d="M 232.582031 411.449219 L 352.671875 411.449219 L 352.671875 413.894531 L 232.582031 413.894531 Z M 232.582031 411.449219 "/>
</svg>
